PathFileType	4	(X/Y/Z)	C:\Users\Caesar\Desktop\毕业设计\1-评估老年人缺少的力\Data\s2\T_01_fixed.trc	Maker trajectories (.TRC) by Lee-Son ToolBox																																																																											
DataRate	CameraRate	NumFrames	NumMarkers	Units	OrigDataRate	OrigDataStartFrame	OrigNumFrames																																																																								
100	100	16	26	mm	100	251	1000																																																																								
Frame#	Time	HEAD			C7			T10			STERN			LSHO			LELB			RSHO			RELB			LASI			RASI			LPSI			RPSI			LHIP			LTHI			LKNE			LTIB			LANK			LHEE			LTOE			RHIP			RTHI			RKNE			RTIB			RANK			RHEE			RTOE		
		X1	Y1	Z1	X2	Y2	Z2	X3	Y3	Z3	X4	Y4	Z4	X5	Y5	Z5	X6	Y6	Z6	X7	Y7	Z7	X8	Y8	Z8	X9	Y9	Z9	X10	Y10	Z10	X11	Y11	Z11	X12	Y12	Z12	X13	Y13	Z13	X14	Y14	Z14	X15	Y15	Z15	X16	Y16	Z16	X17	Y17	Z17	X18	Y18	Z18	X19	Y19	Z19	X20	Y20	Z20	X21	Y21	Z21	X22	Y22	Z22	X23	Y23	Z23	X24	Y24	Z24	X25	Y25	Z25	X26	Y26	Z26
																																																																															
251	2.5	1076.06	1663.77	1558.37	859.308	1529.91	1552.87	768.664	1374.81	1582.27	1003.95	1376.28	1555.19	892.512	1495.49	1407.87	965.948	1173.5	1284.8	937.231	1513.42	1723.92	952.931	1157.84	1812.57	927.874	1072.07	1445.74	918.871	1067.92	1697.98	758.235	1117.13	1514.26	764.392	1109.97	1628.69	859.995	988.074	1393.04	1027.77	776.128	1432.26	1034.22	619.804	1434.79	1110.58	440.415	1443.92	1141.16	275.066	1458.99	1107.66	231.001	1472	1318.95	301.074	1504.28	867.53	992.614	1735.14	869.246	829.733	1712.79	773.95	627.656	1672.15	755.885	524.561	1674.22	650.96	262.579	1624.47	601.754	233.703	1610.28	832.203	225.149	1586.54
252	2.51	1076.14	1660.09	1557.93	859.097	1526.44	1551.82	768.325	1371.23	1581.54	1003.5	1372.76	1554.76	892.158	1491.84	1407.13	965.872	1169.21	1284.58	936.476	1510.35	1723.33	952.871	1154.61	1812.32	928.872	1068.7	1445.78	919.854	1064.67	1697.87	758.992	1112.82	1513.83	765.061	1105.78	1628.25	861.531	983.88	1393.18	1027.94	771.511	1432.72	1035.97	616.277	1435.95	1115.55	438.07	1446.11	1149.06	273.46	1461.89	1116.39	229.219	1474.82	1326.28	302.884	1508.07	868.218	989.265	1734.96	867.927	826.837	1712.53	770.46	625.741	1671.59	749.727	522.958	1673.84	637.292	263.535	1624.56	587.49	235.083	1610.4	817.87	224.349	1586.84
253	2.52	1076.19	1656.53	1557.47	858.837	1523.03	1550.7	768.084	1367.55	1580.72	1003.11	1369.49	1554.23	891.679	1488.3	1406.32	965.831	1165.01	1284.46	935.571	1507.38	1722.7	952.834	1151.48	1811.98	930.118	1065.52	1445.67	921.214	1061.34	1697.67	760.016	1108.64	1513.46	766.079	1101.59	1627.84	863.387	980.012	1393.2	1028.8	767.64	1433.33	1038.13	613.167	1437.2	1118.98	435.592	1448.49	1153.35	271.822	1464.81	1120.93	228.002	1477.68	1330.08	302.115	1511.71	869.294	985.764	1734.63	867.098	823.838	1712.12	767.596	623.749	1670.96	744.093	521.356	1673.39	623.781	264.846	1624.83	573.352	236.952	1610.65	803.447	223.57	1587.16
254	2.53	1076.21	1653.19	1556.97	858.563	1519.74	1549.52	767.964	1363.88	1579.83	1002.83	1366.54	1553.61	891.084	1484.94	1405.45	965.82	1161	1284.44	934.583	1504.55	1722.05	952.816	1148.5	1811.56	931.609	1062.61	1445.42	922.906	1058.01	1697.38	761.283	1104.71	1513.14	767.424	1097.52	1627.49	865.56	976.615	1393.09	1030.38	764.624	1434.11	1040.72	610.555	1438.51	1121.01	433.031	1450.97	1154.23	270.133	1467.61	1121.47	227.269	1480.42	1330.63	298.826	1515.13	870.715	982.171	1734.16	866.755	820.774	1711.55	765.407	621.699	1670.3	739.041	519.792	1672.89	610.499	266.617	1625.33	559.425	239.455	1611.05	788.927	222.809	1587.51
255	2.54	1076.19	1650.19	1556.43	858.311	1516.67	1548.33	767.979	1360.29	1578.9	1002.69	1363.97	1552.87	890.398	1481.85	1404.51	965.832	1157.25	1284.5	933.588	1501.91	1721.36	952.813	1145.72	1811.07	933.328	1060.07	1445.02	924.869	1054.74	1696.98	762.756	1101.13	1512.88	769.054	1093.68	1627.18	868.028	973.81	1392.84	1032.65	762.5	1435.02	1043.71	608.503	1439.82	1121.8	430.473	1453.45	1152.02	268.425	1470.17	1118.37	226.943	1482.9	1328.25	293.318	1518.27	872.425	978.563	1733.53	866.908	817.696	1710.79	763.986	619.606	1669.64	734.667	518.304	1672.38	597.555	268.963	1626.09	545.832	242.76	1611.62	774.306	222.061	1587.88
256	2.55	1076.15	1647.61	1555.84	858.12	1513.89	1547.14	768.14	1356.91	1577.98	1002.72	1361.81	1552.03	889.661	1479.08	1403.53	965.861	1153.84	1284.63	932.666	1499.53	1720.65	952.822	1143.18	1810.49	935.242	1057.98	1444.49	927.026	1051.63	1696.5	764.384	1098.01	1512.66	770.908	1090.18	1626.91	870.754	971.685	1392.44	1035.56	761.236	1436.03	1047.04	607.045	1441.05	1121.51	428.021	1455.8	1147.1	266.765	1472.37	1112.1	226.949	1485.01	1323.28	286.095	1521.09	874.358	975.03	1732.75	867.581	814.66	1709.84	763.457	617.481	1669	731.101	516.926	1671.88	585.093	272.01	1627.12	532.732	247.052	1612.37	759.593	221.321	1588.26
257	2.56	1076.08	1645.53	1555.2	858.024	1511.49	1545.97	768.449	1353.84	1577.07	1002.94	1360.11	1551.1	888.92	1476.7	1402.52	965.903	1150.84	1284.81	931.896	1497.46	1719.91	952.835	1140.93	1809.83	937.306	1056.4	1443.86	929.288	1048.78	1695.92	766.11	1095.41	1512.47	772.911	1087.08	1626.66	873.675	970.288	1391.9	1038.97	760.755	1437.09	1050.61	606.177	1442.14	1120.27	425.773	1457.91	1139.89	265.232	1474.15	1103.21	227.205	1486.67	1316.11	277.793	1523.54	876.444	971.665	1731.81	868.805	811.731	1708.72	763.969	615.332	1668.42	728.503	515.691	1671.44	573.294	275.884	1628.45	520.323	252.521	1613.3	744.816	220.588	1588.66
258	2.57	1076.01	1644	1554.5	858.044	1509.54	1544.86	768.9	1351.2	1576.21	1003.32	1358.88	1550.08	888.23	1474.76	1401.5	965.951	1148.29	1285.03	931.346	1495.74	1719.16	952.846	1139.02	1809.07	939.465	1055.37	1443.13	931.563	1046.27	1695.26	767.875	1093.38	1512.28	774.98	1084.47	1626.42	876.706	969.62	1391.23	1042.73	760.943	1438.16	1054.26	605.85	1443.01	1118.2	423.797	1459.71	1130.82	263.897	1475.48	1092.26	227.631	1487.85	1307.09	269.095	1525.59	878.609	968.562	1730.72	870.614	808.975	1707.46	765.681	613.166	1667.93	727.044	514.625	1671.11	562.374	280.703	1630.05	508.839	259.348	1614.44	730.031	219.872	1589.08
259	2.58	1075.94	1643.04	1553.76	858.186	1508.09	1543.8	769.477	1349.09	1575.42	1003.87	1358.11	1549.01	887.641	1473.29	1400.47	966.002	1146.25	1285.25	931.062	1494.42	1718.4	952.851	1137.49	1808.22	941.661	1054.92	1442.33	933.762	1044.18	1694.51	769.619	1091.92	1512.08	777.031	1082.38	1626.15	879.744	969.642	1390.46	1046.6	761.66	1439.15	1057.76	605.968	1443.63	1115.34	422.121	1461.13	1120.26	262.809	1476.38	1079.79	228.147	1488.59	1296.57	260.635	1527.23	880.78	965.808	1729.49	873.036	806.458	1706.1	768.736	610.991	1667.56	726.893	513.755	1670.93	552.571	286.56	1631.9	498.54	267.683	1615.79	715.332	219.196	1589.55
260	2.59	1075.89	1642.63	1552.99	858.439	1507.17	1542.81	770.154	1347.58	1574.69	1004.54	1357.81	1547.93	887.192	1472.34	1399.48	966.051	1144.76	1285.47	931.065	1493.53	1717.63	952.846	1136.4	1807.3	943.831	1055.03	1441.46	935.8	1042.55	1693.7	771.29	1091.02	1511.83	778.981	1080.83	1625.85	882.676	970.277	1389.59	1050.32	762.744	1440	1060.82	606.396	1443.96	1111.68	420.728	1462.17	1108.58	261.986	1476.9	1066.27	228.682	1488.94	1284.87	252.929	1528.47	882.887	963.475	1728.14	876.086	804.241	1704.7	773.241	608.827	1667.32	728.195	513.105	1670.92	544.13	293.516	1633.97	489.696	277.621	1617.33	700.865	218.6	1590.09
261	2.6	1075.86	1642.76	1552.21	858.778	1506.79	1541.92	770.894	1346.7	1574.05	1005.3	1357.97	1546.85	886.911	1471.9	1398.53	966.095	1143.84	1285.65	931.341	1493.11	1716.86	952.827	1135.77	1806.32	945.914	1055.66	1440.54	937.611	1041.41	1692.84	772.843	1090.67	1511.52	780.758	1079.82	1625.49	885.391	971.426	1388.66	1053.56	764.013	1440.62	1063.14	606.977	1444	1107.15	419.565	1462.83	1096.06	261.415	1477.12	1052.1	229.18	1488.98	1272.28	246.33	1529.32	884.868	961.62	1726.68	879.753	802.385	1703.33	779.249	606.708	1667.25	731.052	512.7	1671.12	537.289	301.583	1636.18	482.572	289.178	1619.07	686.836	218.148	1590.72
262	2.61	1075.87	1643.37	1551.44	859.165	1506.95	1541.11	771.654	1346.48	1573.47	1006.09	1358.55	1545.83	886.808	1472	1397.65	966.138	1143.54	1285.77	931.845	1493.14	1716.11	952.794	1135.64	1805.33	947.849	1056.77	1439.58	939.144	1040.76	1691.93	774.24	1090.83	1511.12	782.305	1079.33	1625.04	887.781	972.985	1387.68	1056.04	765.279	1440.94	1064.38	607.555	1443.75	1101.69	418.56	1463.16	1082.95	261.06	1477.13	1037.57	229.602	1488.83	1259.04	241.015	1529.85	886.672	960.282	1725.14	884.007	800.943	1702.06	786.742	604.687	1667.35	735.511	512.566	1671.51	532.253	310.72	1638.48	477.399	302.271	1620.98	673.516	217.925	1591.48
263	2.62	1075.92	1644.42	1550.72	859.56	1507.62	1540.41	772.388	1346.9	1572.95	1006.87	1359.55	1544.89	886.88	1472.63	1396.85	966.185	1143.85	1285.8	932.502	1493.64	1715.39	952.746	1136.02	1804.36	949.58	1058.28	1438.61	940.371	1040.59	1691.01	775.45	1091.47	1510.63	783.579	1079.35	1624.49	889.757	974.855	1386.66	1057.46	766.365	1440.87	1064.25	607.998	1443.24	1095.21	417.641	1463.21	1069.42	260.872	1477.03	1022.91	229.927	1488.57	1245.36	237.005	1530.1	888.261	959.484	1723.55	888.794	799.971	1700.93	795.633	602.843	1667.63	741.555	512.737	1672.08	529.183	320.82	1640.8	474.358	316.701	1623	661.244	218.036	1592.4
264	2.63	1076	1645.85	1550.09	859.924	1508.79	1539.82	773.051	1347.91	1572.45	1007.59	1360.95	1544.07	887.113	1473.77	1396.15	966.247	1144.8	1285.7	933.219	1494.58	1714.72	952.683	1136.92	1803.46	951.053	1060.13	1437.63	941.283	1040.88	1690.07	776.449	1092.56	1510.02	784.56	1079.85	1623.84	891.247	976.957	1385.63	1057.64	767.123	1440.37	1062.52	608.22	1442.51	1087.63	416.757	1463.02	1055.62	260.801	1476.88	1008.24	230.154	1488.27	1231.39	234.197	1530.16	889.612	959.237	1721.94	894.04	799.519	1700.01	805.769	601.278	1668.09	749.103	513.254	1672.79	528.175	331.713	1643.06	473.557	332.152	1625.08	650.415	218.593	1593.49
265	2.64	1076.12	1647.62	1549.57	860.227	1510.4	1539.32	773.605	1349.48	1571.94	1008.21	1362.71	1543.38	887.487	1475.4	1395.54	966.337	1146.37	1285.46	933.895	1495.94	1714.11	952.603	1138.32	1802.68	952.223	1062.26	1436.65	941.889	1041.62	1689.13	777.216	1094.09	1509.33	785.241	1080.83	1623.1	892.199	979.234	1384.6	1056.45	767.459	1439.43	1059.06	608.187	1441.6	1078.92	415.886	1462.64	1041.65	260.8	1476.73	993.652	230.293	1488	1217.24	232.412	1530.07	890.721	959.542	1720.34	899.665	799.644	1699.31	816.95	600.113	1668.71	758.021	514.162	1673.59	529.261	343.164	1645.21	475.02	348.195	1627.14	641.46	219.709	1594.78
266	2.65	1076.26	1649.67	1549.18	860.447	1512.43	1538.92	774.024	1351.53	1571.38	1008.69	1364.81	1542.85	887.977	1477.5	1395.03	966.47	1148.54	1285.04	934.434	1497.67	1713.59	952.505	1140.2	1802.05	953.052	1064.62	1435.69	942.216	1042.79	1688.18	777.738	1096.03	1508.55	785.636	1082.26	1622.29	892.578	981.653	1383.59	1053.88	767.345	1438.07	1053.83	607.92	1440.57	1069.11	415.033	1462.11	1027.57	260.834	1476.62	979.165	230.364	1487.79	1203.01	231.432	1529.91	891.599	960.398	1718.78	905.583	800.402	1698.84	828.95	599.476	1669.47	768.131	515.512	1674.42	532.405	354.879	1647.19	478.682	364.319	1629.11	634.817	221.469	1596.27
